<svg class="svg-icon" style="width: 1em; height: 1em;vertical-align: middle;fill: currentColor;overflow: hidden;" viewBox="0 0 1024 1024" version="1.1" xmlns="http://www.w3.org/2000/svg"><path d="M510.3 511.1m-338.6 0a338.6 338.6 0 1 0 677.2 0 338.6 338.6 0 1 0-677.2 0Z" fill="#FFD2D2" /><path d="M510.2 64.4C263.9 64.4 63.6 264.8 63.6 511S264 957.6 510.2 957.6 956.8 757.2 956.8 511 756.5 64.4 510.2 64.4z m0 859.8c-227.8 0-413.1-185.3-413.1-413.1S282.4 98 510.2 98s413.1 185.3 413.1 413.1S738 924.2 510.2 924.2z" fill="#FF5959" /><path d="M638.3 429.5c19.7-19.6 30.8-46.2 30.8-74v-24.9c0-8.7 7.1-15.8 15.8-15.8 8.7 0 15.8-7.1 15.8-15.8v-10.4c0-8.7-7.1-15.8-15.8-15.8H335.5c-8.7 0-15.8 7.1-15.8 15.8V299c0 8.7 7.1 15.8 15.8 15.8 8.7 0 15.8 7.1 15.8 15.8v24.9c0 27.8 11.1 54.3 30.8 74l71 70.7c6 6 6 15.7 0 21.6l-71 70.8c-19.7 19.6-30.8 46.3-30.8 73.9v24.9c0 8.7-7.1 15.8-15.8 15.8-8.7 0-15.8 7.1-15.8 15.8v10.4c0 8.7 7.1 15.8 15.8 15.8H685c8.7 0 15.8-7.1 15.8-15.8V723c0-8.7-7.1-15.8-15.8-15.8h-0.1c-8.7 0-15.8-7.1-15.8-15.8v-24.9c0-27.8-11.1-54.3-30.8-73.9l-71-70.8c-6-6-6-15.7 0-21.6l71-70.7z m-97.2 118.3l10.6 10.5c10 9.9 3 27-11.1 27h-60.8c-14.1 0-21.1-17-11.1-27l10.6-10.5c20.4-20.4 20.4-53.4 0-73.7l-71-70.8c-12.8-12.8-19.9-29.8-19.9-47.9v-29.8c0-8.7 7.1-15.8 15.8-15.8h212.3c8.7 0 15.8 7.1 15.8 15.8v30c0 18.1-7.1 35.1-20 47.9l-71 70.8c-20.6 20.3-20.6 53.3-0.2 73.5z m0 0" fill="#FF5959" /><path d="M464.1 568.2s-95.8 76.7-79.7 135.5h254.4s-0.7-97.6-82.5-135.5-92.2 0-92.2 0z" fill="#DB4040" /></svg>